<svg xmlns="http://www.w3.org/2000/svg" version="1.1" width="100%" viewBox="0 0 2241 195" preserveAspectRatio="none" fill="rgba(243,241,236,1)"><g clip-path="url(#clip0)">
													<path fill-rule="evenodd" clip-rule="evenodd" d="M0 195H2245V141.26C2221.85 141.16 2194.8 125.095 2165.27 124.91C2108.36 122.398 2025.41 120.361 2017.14 120.361C2008.87 120.361 2015.51 121.74 2036.35 123.923C1892.24 122.613 1738.66 120.466 1690.66 117.375C1597.93 111.404 783.185 126.332 763.458 134.294C760.899 135.326 745.197 135.025 724.364 134.625C704.377 134.241 679.671 133.767 657.319 134.294C602.936 132.737 427.499 141.956 422.105 142.753C418.236 143.324 441.508 143.788 472.81 144.412C485.14 144.658 498.717 144.929 512.372 145.241C373.684 147.563 291.267 140.478 254.486 134.294C211.874 127.128 67.0738 134.625 0 141.26V195ZM1160.39 130.313C1228.5 127.11 1376.91 121.37 1425.66 124.03C1441.91 124.917 1429.95 125.021 1402.76 125.259C1386.5 125.401 1364.79 125.59 1340.4 126.024C1315.21 126.471 1287.17 127.266 1259.34 128.056C1223.93 129.06 1188.86 130.055 1160.39 130.313Z" fill="hsla(var(--awb-color2-h),var(--awb-color2-s),calc(var(--awb-color2-l) - 3%),var(--awb-color2-a))"/>
													<path d="M142 71C80.9616 106.752 94.9881 152.563 109.631 171L142 157.726C95.7583 130.823 122.733 88.6991 142 71Z" fill="hsla(var(--awb-color2-h),var(--awb-color2-s),calc(var(--awb-color2-l) - 3%),var(--awb-color2-a))"/>
													<path d="M-1 71C60.0384 106.752 46.0119 152.563 31.3689 171L-1 157.726C45.2417 130.823 18.2674 88.6991 -1 71Z" fill="hsla(var(--awb-color2-h),var(--awb-color2-s),calc(var(--awb-color2-l) - 3%),var(--awb-color2-a))"/>
													<path d="M1142 71C1080.96 106.752 1094.99 152.563 1109.63 171L1142 157.726C1095.76 130.823 1122.73 88.6991 1142 71Z" fill="hsla(var(--awb-color2-h),var(--awb-color2-s),calc(var(--awb-color2-l) - 3%),var(--awb-color2-a))"/>
													<path d="M682 71C620.962 106.752 634.988 152.563 649.631 171L682 157.726C635.758 130.823 662.733 88.6991 682 71Z" fill="hsla(var(--awb-color2-h),var(--awb-color2-s),calc(var(--awb-color2-l) - 3%),var(--awb-color2-a))"/>
													<path d="M276 71C214.962 106.752 228.988 152.563 243.631 171L276 157.726C229.758 130.823 256.733 88.6991 276 71Z" fill="hsla(var(--awb-color2-h),var(--awb-color2-s),calc(var(--awb-color2-l) - 3%),var(--awb-color2-a))"/>
													<path d="M1682 71C1620.96 106.752 1634.99 152.563 1649.63 171L1682 157.726C1635.76 130.823 1662.73 88.6991 1682 71Z" fill="hsla(var(--awb-color2-h),var(--awb-color2-s),calc(var(--awb-color2-l) - 3%),var(--awb-color2-a))"/>
													<path d="M320.973 55.3945C252.243 95.6521 268.037 147.236 284.526 167.996L320.973 153.049C268.905 122.756 299.278 75.324 320.973 55.3945Z" fill="hsla(var(--awb-color2-h),var(--awb-color2-s),calc(var(--awb-color2-l) - 3%),var(--awb-color2-a))"/>
													<path d="M1320.97 55.3945C1252.24 95.6521 1268.04 147.236 1284.53 167.996L1320.97 153.049C1268.9 122.756 1299.28 75.324 1320.97 55.3945Z" fill="hsla(var(--awb-color2-h),var(--awb-color2-s),calc(var(--awb-color2-l) - 3%),var(--awb-color2-a))"/>
													<path d="M2158.31 56.3945C2227.04 96.6521 2211.25 148.236 2194.76 168.996L2158.31 154.049C2210.38 123.756 2180.01 76.324 2158.31 56.3945Z" fill="hsla(var(--awb-color2-h),var(--awb-color2-s),calc(var(--awb-color2-l) - 3%),var(--awb-color2-a))"/>
													<path d="M860.973 55.3945C792.243 95.6521 808.037 147.236 824.526 167.996L860.973 153.049C808.905 122.756 839.278 75.324 860.973 55.3945Z" fill="hsla(var(--awb-color2-h),var(--awb-color2-s),calc(var(--awb-color2-l) - 3%),var(--awb-color2-a))"/>
													<path d="M1860.97 55.3945C1792.24 95.6521 1808.04 147.236 1824.53 167.996L1860.97 153.049C1808.9 122.756 1839.28 75.324 1860.97 55.3945Z" fill="hsla(var(--awb-color2-h),var(--awb-color2-s),calc(var(--awb-color2-l) - 3%),var(--awb-color2-a))"/>
													<path d="M283 71C221.962 106.752 235.988 152.563 250.631 171L283 157.726C236.758 130.823 263.733 88.6991 283 71Z" fill="hsla(var(--awb-color2-h),var(--awb-color2-s),calc(var(--awb-color2-l) - 3%),var(--awb-color2-a))"/>
													<path d="M1283 71C1221.96 106.752 1235.99 152.563 1250.63 171L1283 157.726C1236.76 130.823 1263.73 88.6991 1283 71Z" fill="hsla(var(--awb-color2-h),var(--awb-color2-s),calc(var(--awb-color2-l) - 3%),var(--awb-color2-a))"/>
													<path d="M2196.29 72C2257.32 107.752 2243.3 153.563 2228.65 172L2196.29 158.726C2242.53 131.823 2215.55 89.6991 2196.29 72Z" fill="hsla(var(--awb-color2-h),var(--awb-color2-s),calc(var(--awb-color2-l) - 3%),var(--awb-color2-a))"/>
													<path d="M823 71C761.962 106.752 775.988 152.563 790.631 171L823 157.726C776.758 130.823 803.733 88.6991 823 71Z" fill="hsla(var(--awb-color2-h),var(--awb-color2-s),calc(var(--awb-color2-l) - 3%),var(--awb-color2-a))"/>
													<path d="M1823 71C1761.96 106.752 1775.99 152.563 1790.63 171L1823 157.726C1776.76 130.823 1803.73 88.6991 1823 71Z" fill="hsla(var(--awb-color2-h),var(--awb-color2-s),calc(var(--awb-color2-l) - 3%),var(--awb-color2-a))"/>
													<path d="M479.741 55.3945C411.011 95.6521 426.805 147.236 443.293 167.996L479.741 153.049C427.672 122.756 458.046 75.324 479.741 55.3945Z" fill="hsla(var(--awb-color2-h),var(--awb-color2-s),calc(var(--awb-color2-l) - 3%),var(--awb-color2-a))"/>
													<path d="M73.741 55.3945C5.01077 95.6521 20.8049 147.236 37.2932 167.996L73.741 153.049C21.6722 122.756 52.0457 75.324 73.741 55.3945Z" fill="hsla(var(--awb-color2-h),var(--awb-color2-s),calc(var(--awb-color2-l) - 3%),var(--awb-color2-a))"/>
													<path d="M1479.74 55.3945C1411.01 95.6521 1426.8 147.236 1443.29 167.996L1479.74 153.049C1427.67 122.756 1458.05 75.324 1479.74 55.3945Z" fill="hsla(var(--awb-color2-h),var(--awb-color2-s),calc(var(--awb-color2-l) - 3%),var(--awb-color2-a))"/>
													<path d="M1999.54 56.3945C2068.27 96.6521 2052.48 148.236 2035.99 168.996L1999.54 154.049C2051.61 123.756 2021.24 76.324 1999.54 56.3945Z" fill="hsla(var(--awb-color2-h),var(--awb-color2-s),calc(var(--awb-color2-l) - 3%),var(--awb-color2-a))"/>
													<path d="M1019.74 55.3945C951.011 95.6521 966.805 147.236 983.293 167.996L1019.74 153.049C967.672 122.756 998.046 75.324 1019.74 55.3945Z" fill="hsla(var(--awb-color2-h),var(--awb-color2-s),calc(var(--awb-color2-l) - 3%),var(--awb-color2-a))"/>
													<path d="M2019.74 55.3945C1951.01 95.6521 1966.8 147.236 1983.29 167.996L2019.74 153.049C1967.67 122.756 1998.05 75.324 2019.74 55.3945Z" fill="hsla(var(--awb-color2-h),var(--awb-color2-s),calc(var(--awb-color2-l) - 3%),var(--awb-color2-a))"/>
													<path d="M262 91C200.962 126.752 214.988 172.563 229.631 191L262 177.726C215.758 150.823 242.733 108.699 262 91Z" fill="hsla(var(--awb-color2-h),var(--awb-color2-s),calc(var(--awb-color2-l) - 3%),var(--awb-color2-a))"/>
													<path d="M1262 91C1200.96 126.752 1214.99 172.563 1229.63 191L1262 177.726C1215.76 150.823 1242.73 108.699 1262 91Z" fill="hsla(var(--awb-color2-h),var(--awb-color2-s),calc(var(--awb-color2-l) - 3%),var(--awb-color2-a))"/>
													<path d="M802 91C740.962 126.752 754.988 172.563 769.631 191L802 177.726C755.758 150.823 782.733 108.699 802 91Z" fill="hsla(var(--awb-color2-h),var(--awb-color2-s),calc(var(--awb-color2-l) - 3%),var(--awb-color2-a))"/>
													<path d="M1802 91C1740.96 126.752 1754.99 172.563 1769.63 191L1802 177.726C1755.76 150.823 1782.73 108.699 1802 91Z" fill="hsla(var(--awb-color2-h),var(--awb-color2-s),calc(var(--awb-color2-l) - 3%),var(--awb-color2-a))"/>
													<path d="M456.095 77.915C387.364 118.173 403.158 169.757 419.647 190.517L456.095 175.57C404.026 145.277 434.399 97.8445 456.095 77.915Z" fill="hsla(var(--awb-color2-h),var(--awb-color2-s),calc(var(--awb-color2-l) - 3%),var(--awb-color2-a))"/>
													<path d="M50.0946 77.915C-18.6357 118.173 -2.84163 169.757 13.6467 190.517L50.0946 175.57C-1.9743 145.277 28.3992 97.8445 50.0946 77.915Z" fill="hsla(var(--awb-color2-h),var(--awb-color2-s),calc(var(--awb-color2-l) - 3%),var(--awb-color2-a))"/>
													<path d="M1456.09 77.915C1387.36 118.173 1403.16 169.757 1419.65 190.517L1456.09 175.57C1404.03 145.277 1434.4 97.8445 1456.09 77.915Z" fill="hsla(var(--awb-color2-h),var(--awb-color2-s),calc(var(--awb-color2-l) - 3%),var(--awb-color2-a))"/>
													<path d="M2023.19 78.915C2091.92 119.173 2076.13 170.757 2059.64 191.517L2023.19 176.57C2075.26 146.277 2044.89 98.8445 2023.19 78.915Z" fill="hsla(var(--awb-color2-h),var(--awb-color2-s),calc(var(--awb-color2-l) - 3%),var(--awb-color2-a))"/>
													<path d="M996.095 77.915C927.364 118.173 943.158 169.757 959.647 190.517L996.095 175.57C944.026 145.277 974.399 97.8445 996.095 77.915Z" fill="hsla(var(--awb-color2-h),var(--awb-color2-s),calc(var(--awb-color2-l) - 3%),var(--awb-color2-a))"/>
													<path d="M1996.09 77.915C1927.36 118.173 1943.16 169.757 1959.65 190.517L1996.09 175.57C1944.03 145.277 1974.4 97.8445 1996.09 77.915Z" fill="hsla(var(--awb-color2-h),var(--awb-color2-s),calc(var(--awb-color2-l) - 3%),var(--awb-color2-a))"/>
													<path d="M403 91C341.962 126.752 355.988 172.563 370.631 191L403 177.726C356.758 150.823 383.733 108.699 403 91Z" fill="hsla(var(--awb-color2-h),var(--awb-color2-s),calc(var(--awb-color2-l) - 3%),var(--awb-color2-a))"/>
													<path d="M1403 91C1341.96 126.752 1355.99 172.563 1370.63 191L1403 177.726C1356.76 150.823 1383.73 108.699 1403 91Z" fill="hsla(var(--awb-color2-h),var(--awb-color2-s),calc(var(--awb-color2-l) - 3%),var(--awb-color2-a))"/>
													<path d="M943 91C881.962 126.752 895.988 172.563 910.631 191L943 177.726C896.758 150.823 923.733 108.699 943 91Z" fill="hsla(var(--awb-color2-h),var(--awb-color2-s),calc(var(--awb-color2-l) - 3%),var(--awb-color2-a))"/>
													<path d="M1943 91C1881.96 126.752 1895.99 172.563 1910.63 191L1943 177.726C1896.76 150.823 1923.73 108.699 1943 91Z" fill="hsla(var(--awb-color2-h),var(--awb-color2-s),calc(var(--awb-color2-l) - 3%),var(--awb-color2-a))"/>
													<path d="M614.864 77.915C546.134 118.173 561.928 169.757 578.416 190.517L614.864 175.57C562.795 145.277 593.169 97.8445 614.864 77.915Z" fill="hsla(var(--awb-color2-h),var(--awb-color2-s),calc(var(--awb-color2-l) - 3%),var(--awb-color2-a))"/>
													<path d="M208.864 77.915C140.134 118.173 155.928 169.757 172.416 190.517L208.864 175.57C156.795 145.277 187.169 97.8445 208.864 77.915Z" fill="hsla(var(--awb-color2-h),var(--awb-color2-s),calc(var(--awb-color2-l) - 3%),var(--awb-color2-a))"/>
													<path d="M1614.86 77.915C1546.13 118.173 1561.93 169.757 1578.42 190.517L1614.86 175.57C1562.8 145.277 1593.17 97.8445 1614.86 77.915Z" fill="hsla(var(--awb-color2-h),var(--awb-color2-s),calc(var(--awb-color2-l) - 3%),var(--awb-color2-a))"/>
													<path d="M1538.45 53.8788C1507.09 127.1 1550.45 159.203 1576.05 166.102L1596.48 132.421C1536.6 138.998 1532.84 82.8001 1538.45 53.8788Z" fill="hsla(var(--awb-color2-h),var(--awb-color2-s),calc(var(--awb-color2-l) - 3%),var(--awb-color2-a))"/>
													<path d="M625 75C610.079 115.4 613.508 167.167 617.088 188L625 173C613.696 142.6 620.29 95 625 75Z" fill="hsla(var(--awb-color2-h),var(--awb-color2-s),calc(var(--awb-color2-l) - 3%),var(--awb-color2-a))"/>
													<path d="M219 75C204.079 115.4 207.508 167.167 211.088 188L219 173C207.696 142.6 214.29 95 219 75Z" fill="hsla(var(--awb-color2-h),var(--awb-color2-s),calc(var(--awb-color2-l) - 3%),var(--awb-color2-a))"/>
													<path d="M1625 75C1610.08 115.4 1613.51 167.167 1617.09 188L1625 173C1613.7 142.6 1620.29 95 1625 75Z" fill="hsla(var(--awb-color2-h),var(--awb-color2-s),calc(var(--awb-color2-l) - 3%),var(--awb-color2-a))"/>
													<path d="M954.807 52.085C939.886 92.485 943.315 144.252 946.894 165.085L954.807 150.085C943.503 119.685 950.097 72.085 954.807 52.085Z" fill="hsla(var(--awb-color2-h),var(--awb-color2-s),calc(var(--awb-color2-l) - 3%),var(--awb-color2-a))"/>
													<path d="M1954.81 52.085C1939.89 92.485 1943.31 144.252 1946.89 165.085L1954.81 150.085C1943.5 119.685 1950.1 72.085 1954.81 52.085Z" fill="hsla(var(--awb-color2-h),var(--awb-color2-s),calc(var(--awb-color2-l) - 3%),var(--awb-color2-a))"/>
													<path d="M1744.81 52.085C1729.89 92.485 1733.31 144.252 1736.89 165.085L1744.81 150.085C1733.5 119.685 1740.1 72.085 1744.81 52.085Z" fill="hsla(var(--awb-color2-h),var(--awb-color2-s),calc(var(--awb-color2-l) - 3%),var(--awb-color2-a))"/>
													<path d="M1491.81 52.085C1476.89 92.485 1480.31 144.252 1483.89 165.085L1491.81 150.085C1480.5 119.685 1487.1 72.085 1491.81 52.085Z" fill="hsla(var(--awb-color2-h),var(--awb-color2-s),calc(var(--awb-color2-l) - 3%),var(--awb-color2-a))"/>
													<path d="M1102.61 50.1699C1117.53 90.5699 1114.11 142.337 1110.53 163.17L1102.61 148.17C1113.92 117.77 1107.32 70.1699 1102.61 50.1699Z" fill="hsla(var(--awb-color2-h),var(--awb-color2-s),calc(var(--awb-color2-l) - 3%),var(--awb-color2-a))"/>
													<path d="M2102.61 50.1699C2117.53 90.5699 2114.11 142.337 2110.53 163.17L2102.61 148.17C2113.92 117.77 2107.32 70.1699 2102.61 50.1699Z" fill="hsla(var(--awb-color2-h),var(--awb-color2-s),calc(var(--awb-color2-l) - 3%),var(--awb-color2-a))"/>
													<path d="M786.864 77.915C718.134 118.173 733.928 169.757 750.416 190.517L786.864 175.57C734.795 145.277 765.169 97.8445 786.864 77.915Z" fill="hsla(var(--awb-color2-h),var(--awb-color2-s),calc(var(--awb-color2-l) - 3%),var(--awb-color2-a))"/>
													<path d="M1786.86 77.915C1718.13 118.173 1733.93 169.757 1750.42 190.517L1786.86 175.57C1734.8 145.277 1765.17 97.8445 1786.86 77.915Z" fill="hsla(var(--awb-color2-h),var(--awb-color2-s),calc(var(--awb-color2-l) - 3%),var(--awb-color2-a))"/>
													<path d="M1154.86 77.915C1086.13 118.173 1101.93 169.757 1118.42 190.517L1154.86 175.57C1102.8 145.277 1133.17 97.8445 1154.86 77.915Z" fill="hsla(var(--awb-color2-h),var(--awb-color2-s),calc(var(--awb-color2-l) - 3%),var(--awb-color2-a))"/>
													<path d="M2154.86 77.915C2086.13 118.173 2101.93 169.757 2118.42 190.517L2154.86 175.57C2102.8 145.277 2133.17 97.8445 2154.86 77.915Z" fill="hsla(var(--awb-color2-h),var(--awb-color2-s),calc(var(--awb-color2-l) - 3%),var(--awb-color2-a))"/>
													<path d="M62.8292 112.605C88.0007 205.659 135.882 190.516 156.676 171.313L148.974 122.623C114.417 186.883 77.1454 142.719 62.8292 112.605Z" fill="hsla(var(--awb-color2-h),var(--awb-color2-s),calc(var(--awb-color2-l) - 3%),var(--awb-color2-a))"/>
													<path d="M1062.83 112.605C1088 205.659 1135.88 190.516 1156.68 171.313L1148.97 122.623C1114.42 186.883 1077.15 142.719 1062.83 112.605Z" fill="hsla(var(--awb-color2-h),var(--awb-color2-s),calc(var(--awb-color2-l) - 3%),var(--awb-color2-a))"/>
													<path d="M602.829 112.605C628.001 205.659 675.882 190.516 696.676 171.313L688.974 122.623C654.417 186.883 617.145 142.719 602.829 112.605Z" fill="hsla(var(--awb-color2-h),var(--awb-color2-s),calc(var(--awb-color2-l) - 3%),var(--awb-color2-a))"/>
													<path d="M1602.83 112.605C1628 205.659 1675.88 190.516 1696.68 171.313L1688.97 122.623C1654.42 186.883 1617.15 142.719 1602.83 112.605Z" fill="hsla(var(--awb-color2-h),var(--awb-color2-s),calc(var(--awb-color2-l) - 3%),var(--awb-color2-a))"/>
													<path d="M231.825 102.242C260.169 207.022 314.083 189.971 337.498 168.348L328.826 113.523C289.914 185.88 247.945 136.151 231.825 102.242Z" fill="hsla(var(--awb-color2-h),var(--awb-color2-s),calc(var(--awb-color2-l) - 3%),var(--awb-color2-a))"/>
													<path d="M1231.83 102.242C1260.17 207.022 1314.08 189.971 1337.5 168.348L1328.83 113.523C1289.91 185.88 1247.95 136.151 1231.83 102.242Z" fill="hsla(var(--awb-color2-h),var(--awb-color2-s),calc(var(--awb-color2-l) - 3%),var(--awb-color2-a))"/>
													<path d="M771.825 102.242C800.169 207.022 854.083 189.971 877.498 168.348L868.826 113.523C829.914 185.88 787.945 136.151 771.825 102.242Z" fill="hsla(var(--awb-color2-h),var(--awb-color2-s),calc(var(--awb-color2-l) - 3%),var(--awb-color2-a))"/>
													<path d="M1771.83 102.242C1800.17 207.022 1854.08 189.971 1877.5 168.348L1868.83 113.523C1829.91 185.88 1787.95 136.151 1771.83 102.242Z" fill="hsla(var(--awb-color2-h),var(--awb-color2-s),calc(var(--awb-color2-l) - 3%),var(--awb-color2-a))"/>
													<path d="M203.829 112.605C229.001 205.659 276.882 190.516 297.676 171.313L289.974 122.623C255.417 186.883 218.145 142.719 203.829 112.605Z" fill="hsla(var(--awb-color2-h),var(--awb-color2-s),calc(var(--awb-color2-l) - 3%),var(--awb-color2-a))"/>
													<path d="M1203.83 112.605C1229 205.659 1276.88 190.516 1297.68 171.313L1289.97 122.623C1255.42 186.883 1218.15 142.719 1203.83 112.605Z" fill="hsla(var(--awb-color2-h),var(--awb-color2-s),calc(var(--awb-color2-l) - 3%),var(--awb-color2-a))"/>
													<path d="M743.829 112.605C769.001 205.659 816.882 190.516 837.676 171.313L829.974 122.623C795.417 186.883 758.145 142.719 743.829 112.605Z" fill="hsla(var(--awb-color2-h),var(--awb-color2-s),calc(var(--awb-color2-l) - 3%),var(--awb-color2-a))"/>
													<path d="M1743.83 112.605C1769 205.659 1816.88 190.516 1837.68 171.313L1829.97 122.623C1795.42 186.883 1758.15 142.719 1743.83 112.605Z" fill="hsla(var(--awb-color2-h),var(--awb-color2-s),calc(var(--awb-color2-l) - 3%),var(--awb-color2-a))"/>
													<path d="M390.593 102.242C418.936 207.022 472.851 189.971 496.265 168.348L487.593 113.523C448.682 185.88 406.713 136.151 390.593 102.242Z" fill="hsla(var(--awb-color2-h),var(--awb-color2-s),calc(var(--awb-color2-l) - 3%),var(--awb-color2-a))"/>
													<path d="M1390.59 102.242C1418.94 207.022 1472.85 189.971 1496.27 168.348L1487.59 113.523C1448.68 185.88 1406.71 136.151 1390.59 102.242Z" fill="hsla(var(--awb-color2-h),var(--awb-color2-s),calc(var(--awb-color2-l) - 3%),var(--awb-color2-a))"/>
													<path d="M930.593 102.242C958.936 207.022 1012.85 189.971 1036.27 168.348L1027.59 113.523C988.682 185.88 946.713 136.151 930.593 102.242Z" fill="hsla(var(--awb-color2-h),var(--awb-color2-s),calc(var(--awb-color2-l) - 3%),var(--awb-color2-a))"/>
													<path d="M1930.59 102.242C1958.94 207.022 2012.85 189.971 2036.27 168.348L2027.59 113.523C1988.68 185.88 1946.71 136.151 1930.59 102.242Z" fill="hsla(var(--awb-color2-h),var(--awb-color2-s),calc(var(--awb-color2-l) - 3%),var(--awb-color2-a))"/>
													<path d="M242.829 112.605C268.001 205.659 315.882 190.516 336.676 171.313L328.974 122.623C294.417 186.883 257.145 142.719 242.829 112.605Z" fill="hsla(var(--awb-color2-h),var(--awb-color2-s),calc(var(--awb-color2-l) - 3%),var(--awb-color2-a))"/>
													<path d="M1242.83 112.605C1268 205.659 1315.88 190.516 1336.68 171.313L1328.97 122.623C1294.42 186.883 1257.15 142.719 1242.83 112.605Z" fill="hsla(var(--awb-color2-h),var(--awb-color2-s),calc(var(--awb-color2-l) - 3%),var(--awb-color2-a))"/>
													<path d="M782.829 112.605C808.001 205.659 855.882 190.516 876.676 171.313L868.974 122.623C834.417 186.883 797.145 142.719 782.829 112.605Z" fill="hsla(var(--awb-color2-h),var(--awb-color2-s),calc(var(--awb-color2-l) - 3%),var(--awb-color2-a))"/>
													<path d="M1782.83 112.605C1808 205.659 1855.88 190.516 1876.68 171.313L1868.97 122.623C1834.42 186.883 1797.15 142.719 1782.83 112.605Z" fill="hsla(var(--awb-color2-h),var(--awb-color2-s),calc(var(--awb-color2-l) - 3%),var(--awb-color2-a))"/>
													<path d="M434.509 102.242C462.852 207.022 516.767 189.971 540.181 168.348L531.509 113.523C492.598 185.88 450.629 136.151 434.509 102.242Z" fill="hsla(var(--awb-color2-h),var(--awb-color2-s),calc(var(--awb-color2-l) - 3%),var(--awb-color2-a))"/>
													<path d="M1434.51 102.242C1462.85 207.022 1516.77 189.971 1540.18 168.348L1531.51 113.523C1492.6 185.88 1450.63 136.151 1434.51 102.242Z" fill="hsla(var(--awb-color2-h),var(--awb-color2-s),calc(var(--awb-color2-l) - 3%),var(--awb-color2-a))"/>
													<path d="M974.509 102.242C1002.85 207.022 1056.77 189.971 1080.18 168.348L1071.51 113.523C1032.6 185.88 990.629 136.151 974.509 102.242Z" fill="hsla(var(--awb-color2-h),var(--awb-color2-s),calc(var(--awb-color2-l) - 3%),var(--awb-color2-a))"/>
													<path d="M1974.51 102.242C2002.85 207.022 2056.77 189.971 2080.18 168.348L2071.51 113.523C2032.6 185.88 1990.63 136.151 1974.51 102.242Z" fill="hsla(var(--awb-color2-h),var(--awb-color2-s),calc(var(--awb-color2-l) - 3%),var(--awb-color2-a))"/>
													<path d="M383.829 112.605C409.001 205.659 456.882 190.516 477.676 171.313L469.974 122.623C435.417 186.883 398.145 142.719 383.829 112.605Z" fill="hsla(var(--awb-color2-h),var(--awb-color2-s),calc(var(--awb-color2-l) - 3%),var(--awb-color2-a))"/>
													<path d="M1383.83 112.605C1409 205.659 1456.88 190.516 1477.68 171.313L1469.97 122.623C1435.42 186.883 1398.15 142.719 1383.83 112.605Z" fill="hsla(var(--awb-color2-h),var(--awb-color2-s),calc(var(--awb-color2-l) - 3%),var(--awb-color2-a))"/>
													<path d="M923.829 112.605C949.001 205.659 996.882 190.516 1017.68 171.313L1009.97 122.623C975.417 186.883 938.145 142.719 923.829 112.605Z" fill="hsla(var(--awb-color2-h),var(--awb-color2-s),calc(var(--awb-color2-l) - 3%),var(--awb-color2-a))"/>
													<path d="M593.276 102.242C621.62 207.022 675.534 189.971 698.949 168.348L690.277 113.523C651.365 185.88 609.397 136.151 593.276 102.242Z" fill="hsla(var(--awb-color2-h),var(--awb-color2-s),calc(var(--awb-color2-l) - 3%),var(--awb-color2-a))"/>
													<path d="M1593.28 102.242C1621.62 207.022 1675.53 189.971 1698.95 168.348L1690.28 113.523C1651.37 185.88 1609.4 136.151 1593.28 102.242Z" fill="hsla(var(--awb-color2-h),var(--awb-color2-s),calc(var(--awb-color2-l) - 3%),var(--awb-color2-a))"/>
													<path d="M1133.28 102.242C1161.62 207.022 1215.53 189.971 1238.95 168.348L1230.28 113.523C1191.37 185.88 1149.4 136.151 1133.28 102.242Z" fill="hsla(var(--awb-color2-h),var(--awb-color2-s),calc(var(--awb-color2-l) - 3%),var(--awb-color2-a))"/>
													<path d="M2133.28 102.242C2161.62 207.022 2215.53 189.971 2238.95 168.348L2230.28 113.523C2191.37 185.88 2149.4 136.151 2133.28 102.242Z" fill="hsla(var(--awb-color2-h),var(--awb-color2-s),calc(var(--awb-color2-l) - 3%),var(--awb-color2-a))"/>
													<path d="M191.645 111.778C98.0675 88.6302 88.0722 137.844 94.7717 165.344L141.082 182.238C101.665 120.839 158.367 109.682 191.645 111.778Z" fill="hsla(var(--awb-color2-h),var(--awb-color2-s),calc(var(--awb-color2-l) - 3%),var(--awb-color2-a))"/>
													<path d="M1191.65 111.778C1098.07 88.6302 1088.07 137.844 1094.77 165.344L1141.08 182.238C1101.67 120.839 1158.37 109.682 1191.65 111.778Z" fill="hsla(var(--awb-color2-h),var(--awb-color2-s),calc(var(--awb-color2-l) - 3%),var(--awb-color2-a))"/>
													<path d="M731.645 111.778C638.068 88.6302 628.072 137.844 634.772 165.344L681.082 182.238C641.665 120.839 698.367 109.682 731.645 111.778Z" fill="hsla(var(--awb-color2-h),var(--awb-color2-s),calc(var(--awb-color2-l) - 3%),var(--awb-color2-a))"/>
													<path d="M325.645 111.778C232.068 88.6302 222.072 137.844 228.772 165.344L275.082 182.238C235.665 120.839 292.367 109.682 325.645 111.778Z" fill="hsla(var(--awb-color2-h),var(--awb-color2-s),calc(var(--awb-color2-l) - 3%),var(--awb-color2-a))"/>
													<path d="M1731.65 111.778C1638.07 88.6302 1628.07 137.844 1634.77 165.344L1681.08 182.238C1641.67 120.839 1698.37 109.682 1731.65 111.778Z" fill="hsla(var(--awb-color2-h),var(--awb-color2-s),calc(var(--awb-color2-l) - 3%),var(--awb-color2-a))"/>
													<path d="M376.875 101.31C271.505 75.2459 260.25 130.661 267.794 161.627L319.94 180.65C275.556 111.514 339.404 98.9503 376.875 101.31Z" fill="hsla(var(--awb-color2-h),var(--awb-color2-s),calc(var(--awb-color2-l) - 3%),var(--awb-color2-a))"/>
													<path d="M1376.88 101.31C1271.51 75.2459 1260.25 130.661 1267.79 161.627L1319.94 180.65C1275.56 111.514 1339.4 98.9503 1376.88 101.31Z" fill="hsla(var(--awb-color2-h),var(--awb-color2-s),calc(var(--awb-color2-l) - 3%),var(--awb-color2-a))"/>
													<path d="M2102.41 102.31C2207.78 76.2459 2219.03 131.661 2211.49 162.627L2159.35 181.65C2203.73 112.514 2139.88 99.9503 2102.41 102.31Z" fill="hsla(var(--awb-color2-h),var(--awb-color2-s),calc(var(--awb-color2-l) - 3%),var(--awb-color2-a))"/>
													<path d="M916.875 101.31C811.505 75.2459 800.25 130.661 807.794 161.627L859.94 180.65C815.556 111.514 879.404 98.9503 916.875 101.31Z" fill="hsla(var(--awb-color2-h),var(--awb-color2-s),calc(var(--awb-color2-l) - 3%),var(--awb-color2-a))"/>
													<path d="M1916.88 101.31C1811.51 75.2459 1800.25 130.661 1807.79 161.627L1859.94 180.65C1815.56 111.514 1879.4 98.9503 1916.88 101.31Z" fill="hsla(var(--awb-color2-h),var(--awb-color2-s),calc(var(--awb-color2-l) - 3%),var(--awb-color2-a))"/>
													<path d="M332.645 111.778C239.068 88.6302 229.072 137.844 235.772 165.344L282.082 182.238C242.665 120.839 299.367 109.682 332.645 111.778Z" fill="hsla(var(--awb-color2-h),var(--awb-color2-s),calc(var(--awb-color2-l) - 3%),var(--awb-color2-a))"/>
													<path d="M1332.65 111.778C1239.07 88.6302 1229.07 137.844 1235.77 165.344L1282.08 182.238C1242.67 120.839 1299.37 109.682 1332.65 111.778Z" fill="hsla(var(--awb-color2-h),var(--awb-color2-s),calc(var(--awb-color2-l) - 3%),var(--awb-color2-a))"/>
													<path d="M2146.64 112.778C2240.22 89.6302 2250.21 138.844 2243.51 166.344L2197.2 183.238C2236.62 121.839 2179.92 110.682 2146.64 112.778Z" fill="hsla(var(--awb-color2-h),var(--awb-color2-s),calc(var(--awb-color2-l) - 3%),var(--awb-color2-a))"/>
													<path d="M872.645 111.778C779.068 88.6302 769.072 137.844 775.772 165.344L822.082 182.238C782.665 120.839 839.367 109.682 872.645 111.778Z" fill="hsla(var(--awb-color2-h),var(--awb-color2-s),calc(var(--awb-color2-l) - 3%),var(--awb-color2-a))"/>
													<path d="M1872.65 111.778C1779.07 88.6302 1769.07 137.844 1775.77 165.344L1822.08 182.238C1782.67 120.839 1839.37 109.682 1872.65 111.778Z" fill="hsla(var(--awb-color2-h),var(--awb-color2-s),calc(var(--awb-color2-l) - 3%),var(--awb-color2-a))"/>
													<path d="M535.643 101.31C430.273 75.2459 419.018 130.661 426.562 161.627L478.707 180.65C434.324 111.514 498.171 98.9503 535.643 101.31Z" fill="hsla(var(--awb-color2-h),var(--awb-color2-s),calc(var(--awb-color2-l) - 3%),var(--awb-color2-a))"/>
													<path d="M129.643 101.31C24.2727 75.2459 13.0178 130.661 20.5615 161.627L72.7072 180.65C28.3238 111.514 92.1711 98.9503 129.643 101.31Z" fill="hsla(var(--awb-color2-h),var(--awb-color2-s),calc(var(--awb-color2-l) - 3%),var(--awb-color2-a))"/>
													<path d="M368.728 59.5257C347.452 165.966 403.319 174.705 433.912 165.77L450.56 112.818C383.5 160.28 368.064 97.0656 368.728 59.5257Z" fill="hsla(var(--awb-color2-h),var(--awb-color2-s),calc(var(--awb-color2-l) - 3%),var(--awb-color2-a))"/>
													<path d="M1535.64 101.31C1430.27 75.2459 1419.02 130.661 1426.56 161.627L1478.71 180.65C1434.32 111.514 1498.17 98.9503 1535.64 101.31Z" fill="hsla(var(--awb-color2-h),var(--awb-color2-s),calc(var(--awb-color2-l) - 3%),var(--awb-color2-a))"/>
													<path d="M1075.64 101.31C970.273 75.2459 959.018 130.661 966.562 161.627L1018.71 180.65C974.324 111.514 1038.17 98.9503 1075.64 101.31Z" fill="hsla(var(--awb-color2-h),var(--awb-color2-s),calc(var(--awb-color2-l) - 3%),var(--awb-color2-a))"/>
													<path d="M2075.64 101.31C1970.27 75.2459 1959.02 130.661 1966.56 161.627L2018.71 180.65C1974.32 111.514 2038.17 98.9503 2075.64 101.31Z" fill="hsla(var(--awb-color2-h),var(--awb-color2-s),calc(var(--awb-color2-l) - 3%),var(--awb-color2-a))"/>
													<path d="M97.7591 93.1881C75.5973 125.059 93.2459 143.137 104.84 148.192L117.914 133.964C88.578 132.725 92.254 106.264 97.7591 93.1881Z" fill="hsla(var(--awb-color2-h),var(--awb-color2-s),calc(var(--awb-color2-l) - 3%),var(--awb-color2-a))"/>
													<path d="M1097.76 93.1881C1075.6 125.059 1093.25 143.137 1104.84 148.192L1117.91 133.964C1088.58 132.725 1092.25 106.264 1097.76 93.1881Z" fill="hsla(var(--awb-color2-h),var(--awb-color2-s),calc(var(--awb-color2-l) - 3%),var(--awb-color2-a))"/>
													<path d="M637.759 93.1881C615.597 125.059 633.246 143.137 644.84 148.192L657.914 133.964C628.578 132.725 632.254 106.264 637.759 93.1881Z" fill="hsla(var(--awb-color2-h),var(--awb-color2-s),calc(var(--awb-color2-l) - 3%),var(--awb-color2-a))"/>
													<path d="M1637.76 93.1881C1615.6 125.059 1633.25 143.137 1644.84 148.192L1657.91 133.964C1628.58 132.725 1632.25 106.264 1637.76 93.1881Z" fill="hsla(var(--awb-color2-h),var(--awb-color2-s),calc(var(--awb-color2-l) - 3%),var(--awb-color2-a))"/>
													<path d="M271.156 80.3787C246.202 116.266 266.074 136.622 279.13 142.314L293.851 126.293C260.818 124.898 264.958 95.1023 271.156 80.3787Z" fill="hsla(var(--awb-color2-h),var(--awb-color2-s),calc(var(--awb-color2-l) - 3%),var(--awb-color2-a))"/>
													<path d="M1271.16 80.3787C1246.2 116.266 1266.07 136.622 1279.13 142.314L1293.85 126.293C1260.82 124.898 1264.96 95.1023 1271.16 80.3787Z" fill="hsla(var(--awb-color2-h),var(--awb-color2-s),calc(var(--awb-color2-l) - 3%),var(--awb-color2-a))"/>
													<path d="M2208.13 81.3787C2233.08 117.266 2213.21 137.622 2200.16 143.314L2185.43 127.293C2218.47 125.898 2214.33 96.1023 2208.13 81.3787Z" fill="hsla(var(--awb-color2-h),var(--awb-color2-s),calc(var(--awb-color2-l) - 3%),var(--awb-color2-a))"/>
													<path d="M811.156 80.3787C786.202 116.266 806.074 136.622 819.13 142.314L833.851 126.293C800.818 124.898 804.958 95.1023 811.156 80.3787Z" fill="hsla(var(--awb-color2-h),var(--awb-color2-s),calc(var(--awb-color2-l) - 3%),var(--awb-color2-a))"/>
													<path d="M1811.16 80.3787C1786.2 116.266 1806.07 136.622 1819.13 142.314L1833.85 126.293C1800.82 124.898 1804.96 95.1023 1811.16 80.3787Z" fill="hsla(var(--awb-color2-h),var(--awb-color2-s),calc(var(--awb-color2-l) - 3%),var(--awb-color2-a))"/>
													<path d="M238.759 93.1881C216.597 125.059 234.246 143.137 245.84 148.192L258.914 133.964C229.578 132.725 233.254 106.264 238.759 93.1881Z" fill="hsla(var(--awb-color2-h),var(--awb-color2-s),calc(var(--awb-color2-l) - 3%),var(--awb-color2-a))"/>
													<path d="M1238.76 93.1881C1216.6 125.059 1234.25 143.137 1245.84 148.192L1258.91 133.964C1229.58 132.725 1233.25 106.264 1238.76 93.1881Z" fill="hsla(var(--awb-color2-h),var(--awb-color2-s),calc(var(--awb-color2-l) - 3%),var(--awb-color2-a))"/>
													<path d="M778.759 93.1881C756.597 125.059 774.246 143.137 785.84 148.192L798.914 133.964C769.578 132.725 773.254 106.264 778.759 93.1881Z" fill="hsla(var(--awb-color2-h),var(--awb-color2-s),calc(var(--awb-color2-l) - 3%),var(--awb-color2-a))"/>
													<path d="M1778.76 93.1881C1756.6 125.059 1774.25 143.137 1785.84 148.192L1798.91 133.964C1769.58 132.725 1773.25 106.264 1778.76 93.1881Z" fill="hsla(var(--awb-color2-h),var(--awb-color2-s),calc(var(--awb-color2-l) - 3%),var(--awb-color2-a))"/>
													<path d="M429.926 80.3787C404.971 116.266 424.844 136.622 437.9 142.314L452.621 126.293C419.588 124.898 423.727 95.1023 429.926 80.3787Z" fill="hsla(var(--awb-color2-h),var(--awb-color2-s),calc(var(--awb-color2-l) - 3%),var(--awb-color2-a))"/>
													<path d="M1429.93 80.3787C1404.97 116.266 1424.84 136.622 1437.9 142.314L1452.62 126.293C1419.59 124.898 1423.73 95.1023 1429.93 80.3787Z" fill="hsla(var(--awb-color2-h),var(--awb-color2-s),calc(var(--awb-color2-l) - 3%),var(--awb-color2-a))"/>
													<path d="M2049.36 81.3787C2074.31 117.266 2054.44 137.622 2041.39 143.314L2026.66 127.293C2059.7 125.898 2055.56 96.1023 2049.36 81.3787Z" fill="hsla(var(--awb-color2-h),var(--awb-color2-s),calc(var(--awb-color2-l) - 3%),var(--awb-color2-a))"/>
													<path d="M969.926 80.3787C944.971 116.266 964.844 136.622 977.9 142.314L992.621 126.293C959.588 124.898 963.727 95.1023 969.926 80.3787Z" fill="hsla(var(--awb-color2-h),var(--awb-color2-s),calc(var(--awb-color2-l) - 3%),var(--awb-color2-a))"/>
													<path d="M1969.93 80.3787C1944.97 116.266 1964.84 136.622 1977.9 142.314L1992.62 126.293C1959.59 124.898 1963.73 95.1023 1969.93 80.3787Z" fill="hsla(var(--awb-color2-h),var(--awb-color2-s),calc(var(--awb-color2-l) - 3%),var(--awb-color2-a))"/>
													<path d="M215.363 177C233.291 102.17 180.591 62.4875 152 52C168.742 63.0544 197.591 99.619 179.045 157.442L215.363 177Z" fill="hsla(var(--awb-color2-h),var(--awb-color2-s),calc(var(--awb-color2-l) - 3%),var(--awb-color2-a))"/>
													<path d="M1215.36 177C1233.29 102.17 1180.59 62.4875 1152 52C1168.74 63.0544 1197.59 99.619 1179.05 157.442L1215.36 177Z" fill="hsla(var(--awb-color2-h),var(--awb-color2-s),calc(var(--awb-color2-l) - 3%),var(--awb-color2-a))"/>
													<path d="M215.248 177C209.094 102.17 227.185 62.4875 237 52C231.253 63.0544 221.349 99.619 227.716 157.442L215.248 177Z" fill="hsla(var(--awb-color2-h),var(--awb-color2-s),calc(var(--awb-color2-l) - 3%),var(--awb-color2-a))"/>
													<path d="M19.7516 214C25.9058 139.17 7.81477 99.4875 -2 89C3.74739 100.054 13.6506 136.619 7.28424 194.442L19.7516 214Z" fill="hsla(var(--awb-color2-h),var(--awb-color2-s),calc(var(--awb-color2-l) - 3%),var(--awb-color2-a))"/>
													<path d="M1215.25 177C1209.09 102.17 1227.19 62.4875 1237 52C1231.25 63.0544 1221.35 99.619 1227.72 157.442L1215.25 177Z" fill="hsla(var(--awb-color2-h),var(--awb-color2-s),calc(var(--awb-color2-l) - 3%),var(--awb-color2-a))"/>
													<path d="M723.845 183C714.748 108.17 741.491 68.4875 756 58C747.504 69.0544 732.864 105.619 742.275 163.442L723.845 183Z" fill="hsla(var(--awb-color2-h),var(--awb-color2-s),calc(var(--awb-color2-l) - 3%),var(--awb-color2-a))"/>
													<path d="M317.845 183C308.748 108.17 335.491 68.4875 350 58C341.504 69.0544 326.864 105.619 336.275 163.442L317.845 183Z" fill="hsla(var(--awb-color2-h),var(--awb-color2-s),calc(var(--awb-color2-l) - 3%),var(--awb-color2-a))"/>
													<path d="M1723.85 183C1714.75 108.17 1741.49 68.4875 1756 58C1747.5 69.0544 1732.86 105.619 1742.28 163.442L1723.85 183Z" fill="hsla(var(--awb-color2-h),var(--awb-color2-s),calc(var(--awb-color2-l) - 3%),var(--awb-color2-a))"/>
													<path d="M283.035 164.73C335.436 216.724 398.04 129.698 422.792 79.6851C404.198 107.726 357.545 151.603 319.68 102.781L283.035 164.73Z" fill="hsla(var(--awb-color2-h),var(--awb-color2-s),calc(var(--awb-color2-l) - 3%),var(--awb-color2-a))"/>
													<path d="M1283.03 164.731C1335.43 216.725 1398.04 129.698 1422.79 79.6855C1404.2 107.727 1357.54 151.604 1319.68 102.782L1283.03 164.731Z" fill="hsla(var(--awb-color2-h),var(--awb-color2-s),calc(var(--awb-color2-l) - 3%),var(--awb-color2-a))"/>
													<path d="M2196.25 165.731C2143.85 217.725 2081.25 130.698 2056.49 80.6855C2075.09 108.727 2121.74 152.604 2159.61 103.782L2196.25 165.731Z" fill="hsla(var(--awb-color2-h),var(--awb-color2-s),calc(var(--awb-color2-l) - 3%),var(--awb-color2-a))"/>
													<path d="M823.034 164.731C875.435 216.725 938.039 129.698 962.791 79.6855C944.197 107.727 897.544 151.604 859.679 102.782L823.034 164.731Z" fill="hsla(var(--awb-color2-h),var(--awb-color2-s),calc(var(--awb-color2-l) - 3%),var(--awb-color2-a))"/>
													<path d="M1823.03 164.731C1875.43 216.725 1938.04 129.698 1962.79 79.6855C1944.2 107.727 1897.54 151.604 1859.68 102.782L1823.03 164.731Z" fill="hsla(var(--awb-color2-h),var(--awb-color2-s),calc(var(--awb-color2-l) - 3%),var(--awb-color2-a))"/>
													<path d="M339.507 192.717C381.204 165.39 352.789 114.612 333.369 92.6387C342.959 107.987 353.132 143.277 317.1 161.657L339.507 192.717Z" fill="hsla(var(--awb-color2-h),var(--awb-color2-s),calc(var(--awb-color2-l) - 3%),var(--awb-color2-a))"/>
													<path d="M1339.51 192.717C1381.2 165.39 1352.79 114.612 1333.37 92.6387C1342.96 107.987 1353.13 143.277 1317.1 161.657L1339.51 192.717Z" fill="hsla(var(--awb-color2-h),var(--awb-color2-s),calc(var(--awb-color2-l) - 3%),var(--awb-color2-a))"/>
													<path d="M879.507 192.717C921.204 165.39 892.789 114.612 873.369 92.6387C882.959 107.987 893.132 143.277 857.1 161.657L879.507 192.717Z" fill="hsla(var(--awb-color2-h),var(--awb-color2-s),calc(var(--awb-color2-l) - 3%),var(--awb-color2-a))"/>
													<path d="M1879.51 192.717C1921.2 165.39 1892.79 114.612 1873.37 92.6387C1882.96 107.987 1893.13 143.277 1857.1 161.657L1879.51 192.717Z" fill="hsla(var(--awb-color2-h),var(--awb-color2-s),calc(var(--awb-color2-l) - 3%),var(--awb-color2-a))"/>
													<path d="M543.368 192.45C590.32 161.679 558.324 104.502 536.457 79.7598C547.256 97.0419 558.71 136.78 518.138 157.475L543.368 192.45Z" fill="hsla(var(--awb-color2-h),var(--awb-color2-s),calc(var(--awb-color2-l) - 3%),var(--awb-color2-a))"/>
													<path d="M137.368 192.45C184.32 161.679 152.324 104.502 130.457 79.7598C141.256 97.0419 152.71 136.78 112.138 157.475L137.368 192.45Z" fill="hsla(var(--awb-color2-h),var(--awb-color2-s),calc(var(--awb-color2-l) - 3%),var(--awb-color2-a))"/>
													<path d="M1543.37 192.45C1590.32 161.679 1558.32 104.502 1536.46 79.7598C1547.26 97.0419 1558.71 136.78 1518.14 157.475L1543.37 192.45Z" fill="hsla(var(--awb-color2-h),var(--awb-color2-s),calc(var(--awb-color2-l) - 3%),var(--awb-color2-a))"/>
													<path d="M1083.37 192.45C1130.32 161.679 1098.32 104.502 1076.46 79.7598C1087.26 97.0419 1098.71 136.78 1058.14 157.475L1083.37 192.45Z" fill="hsla(var(--awb-color2-h),var(--awb-color2-s),calc(var(--awb-color2-l) - 3%),var(--awb-color2-a))"/>
													<path d="M2083.37 192.45C2130.32 161.679 2098.32 104.502 2076.46 79.7598C2087.26 97.0419 2098.71 136.78 2058.14 157.475L2083.37 192.45Z" fill="hsla(var(--awb-color2-h),var(--awb-color2-s),calc(var(--awb-color2-l) - 3%),var(--awb-color2-a))"/>
													<path d="M234.619 187.165C289.14 183.364 293.61 124.145 289.029 95.0107C288.594 113.403 276.731 149.844 232.758 148.466L234.619 187.165Z" fill="hsla(var(--awb-color2-h),var(--awb-color2-s),calc(var(--awb-color2-l) - 3%),var(--awb-color2-a))"/>
													<path d="M1234.62 187.165C1289.14 183.364 1293.61 124.145 1289.03 95.0107C1288.59 113.403 1276.73 149.844 1232.76 148.466L1234.62 187.165Z" fill="hsla(var(--awb-color2-h),var(--awb-color2-s),calc(var(--awb-color2-l) - 3%),var(--awb-color2-a))"/>
													<path d="M774.619 187.165C829.14 183.364 833.61 124.145 829.029 95.0107C828.594 113.403 816.731 149.844 772.758 148.466L774.619 187.165Z" fill="hsla(var(--awb-color2-h),var(--awb-color2-s),calc(var(--awb-color2-l) - 3%),var(--awb-color2-a))"/>
													<path d="M1774.62 187.165C1829.14 183.364 1833.61 124.145 1829.03 95.0107C1828.59 113.403 1816.73 149.844 1772.76 148.466L1774.62 187.165Z" fill="hsla(var(--awb-color2-h),var(--awb-color2-s),calc(var(--awb-color2-l) - 3%),var(--awb-color2-a))"/>
													<path d="M425.265 186.198C486.656 181.918 491.689 115.237 486.531 82.4307C486.041 103.141 472.683 144.174 423.168 142.622L425.265 186.198Z" fill="hsla(var(--awb-color2-h),var(--awb-color2-s),calc(var(--awb-color2-l) - 3%),var(--awb-color2-a))"/>
													<path d="M19.2648 186.198C80.6557 181.918 85.6887 115.237 80.5312 82.4307C80.0414 103.141 66.6831 144.174 17.1685 142.622L19.2648 186.198Z" fill="hsla(var(--awb-color2-h),var(--awb-color2-s),calc(var(--awb-color2-l) - 3%),var(--awb-color2-a))"/>
													<path d="M1425.26 186.198C1486.66 181.918 1491.69 115.237 1486.53 82.4307C1486.04 103.141 1472.68 144.174 1423.17 142.622L1425.26 186.198Z" fill="hsla(var(--awb-color2-h),var(--awb-color2-s),calc(var(--awb-color2-l) - 3%),var(--awb-color2-a))"/>
													<path d="M965.265 186.198C1026.66 181.918 1031.69 115.237 1026.53 82.4307C1026.04 103.141 1012.68 144.174 963.168 142.622L965.265 186.198Z" fill="hsla(var(--awb-color2-h),var(--awb-color2-s),calc(var(--awb-color2-l) - 3%),var(--awb-color2-a))"/>
													<path d="M1965.26 186.198C2026.66 181.918 2031.69 115.237 2026.53 82.4307C2026.04 103.141 2012.68 144.174 1963.17 142.622L1965.26 186.198Z" fill="hsla(var(--awb-color2-h),var(--awb-color2-s),calc(var(--awb-color2-l) - 3%),var(--awb-color2-a))"/>
													<path d="M375.619 187.165C430.14 183.364 434.61 124.145 430.029 95.0107C429.594 113.403 417.731 149.844 373.758 148.466L375.619 187.165Z" fill="hsla(var(--awb-color2-h),var(--awb-color2-s),calc(var(--awb-color2-l) - 3%),var(--awb-color2-a))"/>
													<path d="M1375.62 187.165C1430.14 183.364 1434.61 124.145 1430.03 95.0107C1429.59 113.403 1417.73 149.844 1373.76 148.466L1375.62 187.165Z" fill="hsla(var(--awb-color2-h),var(--awb-color2-s),calc(var(--awb-color2-l) - 3%),var(--awb-color2-a))"/>
													<path d="M915.619 187.165C970.14 183.364 974.61 124.145 970.029 95.0107C969.594 113.403 957.731 149.844 913.758 148.466L915.619 187.165Z" fill="hsla(var(--awb-color2-h),var(--awb-color2-s),calc(var(--awb-color2-l) - 3%),var(--awb-color2-a))"/>
													<path d="M584.032 186.198C645.423 181.918 650.456 115.237 645.299 82.4307C644.809 103.141 631.451 144.174 581.936 142.622L584.032 186.198Z" fill="hsla(var(--awb-color2-h),var(--awb-color2-s),calc(var(--awb-color2-l) - 3%),var(--awb-color2-a))"/>
													<path d="M178.032 186.198C239.423 181.918 244.456 115.237 239.299 82.4307C238.809 103.141 225.451 144.174 175.936 142.622L178.032 186.198Z" fill="hsla(var(--awb-color2-h),var(--awb-color2-s),calc(var(--awb-color2-l) - 3%),var(--awb-color2-a))"/>
													<path d="M1584.03 186.198C1645.42 181.918 1650.46 115.237 1645.3 82.4307C1644.81 103.141 1631.45 144.174 1581.94 142.622L1584.03 186.198Z" fill="hsla(var(--awb-color2-h),var(--awb-color2-s),calc(var(--awb-color2-l) - 3%),var(--awb-color2-a))"/>
													<path d="M1124.03 186.198C1185.42 181.918 1190.46 115.237 1185.3 82.4307C1184.81 103.141 1171.45 144.174 1121.94 142.622L1124.03 186.198Z" fill="hsla(var(--awb-color2-h),var(--awb-color2-s),calc(var(--awb-color2-l) - 3%),var(--awb-color2-a))"/>
													<path d="M2124.03 186.198C2185.42 181.918 2190.46 115.237 2185.3 82.4307C2184.81 103.141 2171.45 144.174 2121.94 142.622L2124.03 186.198Z" fill="hsla(var(--awb-color2-h),var(--awb-color2-s),calc(var(--awb-color2-l) - 3%),var(--awb-color2-a))"/>
													<path d="M2159.91 182.198C2098.52 177.918 2093.49 111.237 2098.64 78.4307C2099.13 99.1411 2112.49 140.174 2162.01 138.622L2159.91 182.198Z" fill="hsla(var(--awb-color2-h),var(--awb-color2-s),calc(var(--awb-color2-l) - 3%),var(--awb-color2-a))"/>
													<path d="M2073.25 178.198C2011.86 173.918 2006.83 107.237 2011.99 74.4307C2012.48 95.1411 2025.83 136.174 2075.35 134.622L2073.25 178.198Z" fill="hsla(var(--awb-color2-h),var(--awb-color2-s),calc(var(--awb-color2-l) - 3%),var(--awb-color2-a))"/>
													<path d="M102.649 171.176C157.169 167.375 161.639 108.156 157.059 79.0215C156.624 97.4141 144.76 133.855 100.787 132.477L102.649 171.176Z" fill="hsla(var(--awb-color2-h),var(--awb-color2-s),calc(var(--awb-color2-l) - 3%),var(--awb-color2-a))"/>
													<path d="M1102.65 171.176C1157.17 167.375 1161.64 108.156 1157.06 79.0215C1156.62 97.4141 1144.76 133.855 1100.79 132.477L1102.65 171.176Z" fill="hsla(var(--awb-color2-h),var(--awb-color2-s),calc(var(--awb-color2-l) - 3%),var(--awb-color2-a))"/>
													<path d="M642.649 171.176C697.169 167.375 701.639 108.156 697.059 79.0215C696.624 97.4141 684.76 133.855 640.787 132.477L642.649 171.176Z" fill="hsla(var(--awb-color2-h),var(--awb-color2-s),calc(var(--awb-color2-l) - 3%),var(--awb-color2-a))"/>
													<path d="M236.649 171.176C291.169 167.375 295.639 108.156 291.059 79.0215C290.624 97.4141 278.76 133.855 234.787 132.477L236.649 171.176Z" fill="hsla(var(--awb-color2-h),var(--awb-color2-s),calc(var(--awb-color2-l) - 3%),var(--awb-color2-a))"/>
													<path d="M1642.65 171.176C1697.17 167.375 1701.64 108.156 1697.06 79.0215C1696.62 97.4141 1684.76 133.855 1640.79 132.477L1642.65 171.176Z" fill="hsla(var(--awb-color2-h),var(--awb-color2-s),calc(var(--awb-color2-l) - 3%),var(--awb-color2-a))"/>
													<path d="M502.649 171.176C557.169 167.375 561.639 108.156 557.059 79.0215C556.624 97.4141 544.76 133.855 500.787 132.477L502.649 171.176Z" fill="hsla(var(--awb-color2-h),var(--awb-color2-s),calc(var(--awb-color2-l) - 3%),var(--awb-color2-a))"/>
													<path d="M96.6487 171.176C151.169 167.375 155.639 108.156 151.059 79.0215C150.624 97.4141 138.76 133.855 94.7869 132.477L96.6487 171.176Z" fill="hsla(var(--awb-color2-h),var(--awb-color2-s),calc(var(--awb-color2-l) - 3%),var(--awb-color2-a))"/>
													<path d="M1502.65 171.176C1557.17 167.375 1561.64 108.156 1557.06 79.0215C1556.62 97.4141 1544.76 133.855 1500.79 132.477L1502.65 171.176Z" fill="hsla(var(--awb-color2-h),var(--awb-color2-s),calc(var(--awb-color2-l) - 3%),var(--awb-color2-a))"/>
													<path d="M276.663 168.194C338.054 163.914 343.087 97.2326 337.93 64.4268C337.44 85.1372 324.082 126.17 274.567 124.618L276.663 168.194Z" fill="hsla(var(--awb-color2-h),var(--awb-color2-s),calc(var(--awb-color2-l) - 3%),var(--awb-color2-a))"/>
													<path d="M1276.66 168.194C1338.05 163.914 1343.09 97.2326 1337.93 64.4268C1337.44 85.1372 1324.08 126.17 1274.57 124.618L1276.66 168.194Z" fill="hsla(var(--awb-color2-h),var(--awb-color2-s),calc(var(--awb-color2-l) - 3%),var(--awb-color2-a))"/>
													<path d="M2202.62 169.194C2141.23 164.914 2136.2 98.2326 2141.36 65.4268C2141.85 86.1372 2155.2 127.17 2204.72 125.618L2202.62 169.194Z" fill="hsla(var(--awb-color2-h),var(--awb-color2-s),calc(var(--awb-color2-l) - 3%),var(--awb-color2-a))"/>
													<path d="M816.663 168.194C878.054 163.914 883.087 97.2326 877.93 64.4268C877.44 85.1372 864.082 126.17 814.567 124.618L816.663 168.194Z" fill="hsla(var(--awb-color2-h),var(--awb-color2-s),calc(var(--awb-color2-l) - 3%),var(--awb-color2-a))"/>
													<path d="M253.649 174.176C308.169 170.375 312.639 111.156 308.059 82.0215C307.624 100.414 295.76 136.855 251.787 135.477L253.649 174.176Z" fill="hsla(var(--awb-color2-h),var(--awb-color2-s),calc(var(--awb-color2-l) - 3%),var(--awb-color2-a))"/>
													<path d="M1253.65 174.176C1308.17 170.375 1312.64 111.156 1308.06 82.0215C1307.62 100.414 1295.76 136.855 1251.79 135.477L1253.65 174.176Z" fill="hsla(var(--awb-color2-h),var(--awb-color2-s),calc(var(--awb-color2-l) - 3%),var(--awb-color2-a))"/>
													<path d="M2225.64 175.176C2171.12 171.375 2166.65 112.156 2171.23 83.0215C2171.66 101.414 2183.53 137.855 2227.5 136.477L2225.64 175.176Z" fill="hsla(var(--awb-color2-h),var(--awb-color2-s),calc(var(--awb-color2-l) - 3%),var(--awb-color2-a))"/>
													<path d="M793.649 174.176C848.169 170.375 852.639 111.156 848.059 82.0215C847.624 100.414 835.76 136.855 791.787 135.477L793.649 174.176Z" fill="hsla(var(--awb-color2-h),var(--awb-color2-s),calc(var(--awb-color2-l) - 3%),var(--awb-color2-a))"/>
													<path d="M1771.65 157.176C1826.17 153.375 1830.64 94.1559 1826.06 65.0215C1825.62 83.4141 1813.76 119.855 1769.79 118.477L1771.65 157.176Z" fill="hsla(var(--awb-color2-h),var(--awb-color2-s),calc(var(--awb-color2-l) - 3%),var(--awb-color2-a))"/>
													<path d="M446.691 171.572C508.082 167.292 513.114 100.611 507.957 67.8047C507.467 88.5151 494.109 129.548 444.594 127.996L446.691 171.572Z" fill="hsla(var(--awb-color2-h),var(--awb-color2-s),calc(var(--awb-color2-l) - 3%),var(--awb-color2-a))"/>
													<path d="M40.6906 171.572C102.082 167.292 107.114 100.611 101.957 67.8047C101.467 88.5151 88.1088 129.548 38.5942 127.996L40.6906 171.572Z" fill="hsla(var(--awb-color2-h),var(--awb-color2-s),calc(var(--awb-color2-l) - 3%),var(--awb-color2-a))"/>
													<path d="M1446.69 171.572C1508.08 167.292 1513.11 100.611 1507.96 67.8047C1507.47 88.5151 1494.11 129.548 1444.59 127.996L1446.69 171.572Z" fill="hsla(var(--awb-color2-h),var(--awb-color2-s),calc(var(--awb-color2-l) - 3%),var(--awb-color2-a))"/>
													<path d="M986.691 171.572C1048.08 167.292 1053.11 100.611 1047.96 67.8047C1047.47 88.5151 1034.11 129.548 984.594 127.996L986.691 171.572Z" fill="hsla(var(--awb-color2-h),var(--awb-color2-s),calc(var(--awb-color2-l) - 3%),var(--awb-color2-a))"/>
													<path d="M1986.69 171.572C2048.08 167.292 2053.11 100.611 2047.96 67.8047C2047.47 88.5151 2034.11 129.548 1984.59 127.996L1986.69 171.572Z" fill="hsla(var(--awb-color2-h),var(--awb-color2-s),calc(var(--awb-color2-l) - 3%),var(--awb-color2-a))"/>
													<path d="M1695.04 178.93C1751.96 155.531 1735.73 90.6581 1720.5 61.1465C1726.56 80.9571 1726.81 124.109 1679.32 138.232L1695.04 178.93Z" fill="hsla(var(--awb-color2-h),var(--awb-color2-s),calc(var(--awb-color2-l) - 3%),var(--awb-color2-a))"/>
													<path d="M192.718 145.928C189.709 102.829 146.555 96.1784 125.354 98.2408C138.753 99.5562 165.348 110.819 164.538 145.346L192.718 145.928Z" fill="hsla(var(--awb-color2-h),var(--awb-color2-s),calc(var(--awb-color2-l) - 3%),var(--awb-color2-a))"/>
													<path d="M1192.72 145.929C1189.71 102.829 1146.55 96.1788 1125.35 98.2412C1138.75 99.5567 1165.35 110.819 1164.54 145.346L1192.72 145.929Z" fill="hsla(var(--awb-color2-h),var(--awb-color2-s),calc(var(--awb-color2-l) - 3%),var(--awb-color2-a))"/>
													<path d="M732.717 145.929C729.708 102.829 686.554 96.1788 665.354 98.2412C678.752 99.5567 705.347 110.819 704.538 145.346L732.717 145.929Z" fill="hsla(var(--awb-color2-h),var(--awb-color2-s),calc(var(--awb-color2-l) - 3%),var(--awb-color2-a))"/>
													<path d="M326.717 145.929C323.708 102.829 280.554 96.1788 259.354 98.2412C272.752 99.5567 299.347 110.819 298.538 145.346L326.717 145.929Z" fill="hsla(var(--awb-color2-h),var(--awb-color2-s),calc(var(--awb-color2-l) - 3%),var(--awb-color2-a))"/>
													<path d="M1738.36 134.142C1735.35 91.0423 1692.2 84.3921 1671 86.4545C1684.4 87.77 1710.99 99.0326 1710.18 133.559L1738.36 134.142Z" fill="hsla(var(--awb-color2-h),var(--awb-color2-s),calc(var(--awb-color2-l) - 3%),var(--awb-color2-a))"/>
													<path d="M378.081 139.765C374.693 91.2343 326.101 83.7461 302.229 86.0684C317.316 87.5496 347.262 100.231 346.351 139.109L378.081 139.765Z" fill="hsla(var(--awb-color2-h),var(--awb-color2-s),calc(var(--awb-color2-l) - 3%),var(--awb-color2-a))"/>
													<path d="M1378.08 139.765C1374.69 91.2343 1326.1 83.7461 1302.23 86.0684C1317.32 87.5496 1347.26 100.231 1346.35 139.109L1378.08 139.765Z" fill="hsla(var(--awb-color2-h),var(--awb-color2-s),calc(var(--awb-color2-l) - 3%),var(--awb-color2-a))"/>
													<path d="M2101.2 140.765C2104.59 92.2343 2153.18 84.7461 2177.06 87.0684C2161.97 88.5496 2132.02 101.231 2132.93 140.109L2101.2 140.765Z" fill="hsla(var(--awb-color2-h),var(--awb-color2-s),calc(var(--awb-color2-l) - 3%),var(--awb-color2-a))"/>
													<path d="M918.081 139.765C914.693 91.2343 866.101 83.7461 842.229 86.0684C857.316 87.5496 887.262 100.231 886.351 139.109L918.081 139.765Z" fill="hsla(var(--awb-color2-h),var(--awb-color2-s),calc(var(--awb-color2-l) - 3%),var(--awb-color2-a))"/>
													<path d="M1860.56 155.554C1910.71 137.546 1906.86 86.1154 1898.66 62.6514C1900.74 78.3664 1894.65 112.486 1853.6 123.242L1860.56 155.554Z" fill="hsla(var(--awb-color2-h),var(--awb-color2-s),calc(var(--awb-color2-l) - 3%),var(--awb-color2-a))"/>
													<path d="M1551.64 152.614C1594.34 129.306 1580.9 82.0152 1568.84 61.2832C1573.78 75.6148 1574.73 108.122 1539.01 123.498L1551.64 152.614Z" fill="hsla(var(--awb-color2-h),var(--awb-color2-s),calc(var(--awb-color2-l) - 3%),var(--awb-color2-a))"/>
													<path d="M333.717 145.929C330.708 102.829 287.554 96.1788 266.354 98.2412C279.752 99.5567 306.347 110.819 305.538 145.346L333.717 145.929Z" fill="hsla(var(--awb-color2-h),var(--awb-color2-s),calc(var(--awb-color2-l) - 3%),var(--awb-color2-a))"/>
													<path d="M1333.72 145.929C1330.71 102.829 1287.55 96.1788 1266.35 98.2412C1279.75 99.5567 1306.35 110.819 1305.54 145.346L1333.72 145.929Z" fill="hsla(var(--awb-color2-h),var(--awb-color2-s),calc(var(--awb-color2-l) - 3%),var(--awb-color2-a))"/>
													<path d="M2145.57 146.929C2148.58 103.829 2191.73 97.1788 2212.93 99.2412C2199.53 100.557 2172.94 111.819 2173.75 146.346L2145.57 146.929Z" fill="hsla(var(--awb-color2-h),var(--awb-color2-s),calc(var(--awb-color2-l) - 3%),var(--awb-color2-a))"/>
													<path d="M873.717 145.929C870.708 102.829 827.554 96.1788 806.354 98.2412C819.752 99.5567 846.347 110.819 845.538 145.346L873.717 145.929Z" fill="hsla(var(--awb-color2-h),var(--awb-color2-s),calc(var(--awb-color2-l) - 3%),var(--awb-color2-a))"/>
													<path d="M1873.72 145.929C1870.71 102.829 1827.55 96.1788 1806.35 98.2412C1819.75 99.5567 1846.35 110.819 1845.54 145.346L1873.72 145.929Z" fill="hsla(var(--awb-color2-h),var(--awb-color2-s),calc(var(--awb-color2-l) - 3%),var(--awb-color2-a))"/>
													<path d="M536.849 139.765C533.46 91.2343 484.868 83.7461 460.996 86.0684C476.083 87.5496 506.03 100.231 505.118 139.109L536.849 139.765Z" fill="hsla(var(--awb-color2-h),var(--awb-color2-s),calc(var(--awb-color2-l) - 3%),var(--awb-color2-a))"/>
													<path d="M130.849 139.765C127.46 91.2343 78.8685 83.7461 54.9961 86.0684C70.0833 87.5496 100.03 100.231 99.1184 139.109L130.849 139.765Z" fill="hsla(var(--awb-color2-h),var(--awb-color2-s),calc(var(--awb-color2-l) - 3%),var(--awb-color2-a))"/>
													<path d="M1465.1 134.02C1511.18 118.394 1506.05 69.4957 1497.73 47C1500.14 61.9675 1495.49 94.1554 1457.66 103.167L1465.1 134.02Z" fill="hsla(var(--awb-color2-h),var(--awb-color2-s),calc(var(--awb-color2-l) - 3%),var(--awb-color2-a))"/>
													<path d="M2014.18 135.02C1968.11 119.394 1973.23 70.4957 1981.55 48C1979.15 62.9675 1983.79 95.1554 2021.62 104.167L2014.18 135.02Z" fill="hsla(var(--awb-color2-h),var(--awb-color2-s),calc(var(--awb-color2-l) - 3%),var(--awb-color2-a))"/>
													<path d="M1076.85 139.765C1073.46 91.2343 1024.87 83.7461 1001 86.0684C1016.08 87.5496 1046.03 100.231 1045.12 139.109L1076.85 139.765Z" fill="hsla(var(--awb-color2-h),var(--awb-color2-s),calc(var(--awb-color2-l) - 3%),var(--awb-color2-a))"/>
													<path d="M2076.85 139.765C2073.46 91.2343 2024.87 83.7461 2001 86.0684C2016.08 87.5496 2046.03 100.231 2045.12 139.109L2076.85 139.765Z" fill="hsla(var(--awb-color2-h),var(--awb-color2-s),calc(var(--awb-color2-l) - 3%),var(--awb-color2-a))"/>
													<path d="M586.885 167.996C625.322 138.174 604.503 93.6342 589.289 75.0918C596.454 88.4515 602.582 120.39 569.773 141.268L586.885 167.996Z" fill="hsla(var(--awb-color2-h),var(--awb-color2-s),calc(var(--awb-color2-l) - 3%),var(--awb-color2-a))"/>
													<path d="M180.885 167.996C219.322 138.174 198.503 93.6342 183.289 75.0918C190.454 88.4515 196.582 120.39 163.773 141.268L180.885 167.996Z" fill="hsla(var(--awb-color2-h),var(--awb-color2-s),calc(var(--awb-color2-l) - 3%),var(--awb-color2-a))"/>
													<path d="M1586.88 167.996C1625.32 138.174 1604.5 93.6342 1589.29 75.0918C1596.45 88.4515 1602.58 120.39 1569.77 141.268L1586.88 167.996Z" fill="hsla(var(--awb-color2-h),var(--awb-color2-s),calc(var(--awb-color2-l) - 3%),var(--awb-color2-a))"/>
													<path d="M1516.88 167.996C1555.32 138.174 1534.5 93.6342 1519.29 75.0918C1526.45 88.4515 1532.58 120.39 1499.77 141.268L1516.88 167.996Z" fill="hsla(var(--awb-color2-h),var(--awb-color2-s),calc(var(--awb-color2-l) - 3%),var(--awb-color2-a))"/>
													</g>
													<defs>
													<clipPath id="clip0">
													<rect width="100%" height="195" fill="white"/>
													</clipPath>
													</defs></svg>